<svg xmlns="http://www.w3.org/2000/svg" xmlns:xlink="http://www.w3.org/1999/xlink" version="1.1" x="0px" y="0px" viewBox="0 0 100 125" style="enable-background:new 0 0 100 100;" xml:space="preserve"><g><path d="M201.2,149.3c8.5,0,15.5-12,15.5-20.5c0-8.5-6.9-15.5-15.5-15.5c-8.5,0-15.5,6.9-15.5,15.5   C185.8,137.3,192.7,149.3,201.2,149.3z M188.3,128.7c0-7.1,5.8-12.9,12.9-12.9c7.1,0,12.9,5.8,12.9,12.9c0,3.8-1.6,8.4-4.1,12   c-2.6,3.8-5.8,6-8.8,6c-3,0-6.2-2.2-8.8-6C189.9,137.1,188.3,132.5,188.3,128.7z"/><path d="M201.2,151.8c-14.5,0-26.2,10.1-26.2,22.6s11.7,30,26.2,30c14.5,0,26.2-17.5,26.2-30S215.7,151.8,201.2,151.8z    M201.2,201.9c-3.4,0-10-1.2-16.5-9.4c-4.4-5.5-7.1-12.4-7.1-18.1c0-11.1,10.6-20.1,23.6-20.1c13,0,23.6,9,23.6,20.1   c0,5.7-2.7,12.6-7.1,18.1C211.3,200.7,204.6,201.9,201.2,201.9z"/></g><g><path d="M50,21.7c-8.1,0-14.7,6.6-14.7,14.7S41.9,56.1,50,56.1c8.1,0,14.7-11.4,14.7-19.6S58.1,21.7,50,21.7z"/><path d="M50,7.5C26.6,7.5,7.5,26.6,7.5,50S26.6,92.5,50,92.5c23.4,0,42.5-19.1,42.5-42.5S73.4,7.5,50,7.5z M74.9,80.7   c0-0.2,0-0.5,0-0.7c0-11.9-11.2-21.6-25-21.6S25,68.1,25,80c0,0.2,0,0.5,0,0.7C16.1,73.5,10.4,62.4,10.4,50   c0-21.8,17.8-39.6,39.6-39.6c21.8,0,39.6,17.8,39.6,39.6C89.6,62.4,83.9,73.5,74.9,80.7z"/></g><text x="0" y="115" fill="#000000" font-size="5px" font-weight="bold" font-family="'Helvetica Neue', Helvetica, Arial-Unicode, Arial, Sans-serif">Created by mikicon</text><text x="0" y="120" fill="#000000" font-size="5px" font-weight="bold" font-family="'Helvetica Neue', Helvetica, Arial-Unicode, Arial, Sans-serif">from the Noun Project</text></svg>